# xmcd
#
# Track frame offsets: 
#        150
#        22777
#        41230
#        58370
#        74190
#        97290
#        113985
#        133807
#        150210
#        170162
#        187937
#        207917
#        226205
#        244892
#        274910
#
# Disc length: 4310 seconds
#
# Revision: 0
# Processed by: cddbd v1.5PL3 Copyright (c) Steve Scherf et al.
# Submitted via: ExactAudioCopy v0.95a3
#
DISCID=e310d40f
DTITLE=Deborah Cox - The Morning After
DYEAR=2002
DGENRE=R&B
TTITLE0=Up and Down (in and Out)
TTITLE1=2 Good 2 Be True
TTITLE2=Play Your Part
TTITLE3=Like I Did
TTITLE4=Hurt So Much 
TTITLE5=Just A Dance (Feat. Kurupt)
TTITLE6=The Morning After 
TTITLE7=Givin' It Up
TTITLE8=Up and Down (Allstar Remix Feat. Jadakiss) 
TTITLE9=Oh My Gosh
TTITLE10=Starting With You
TTITLE11=Mr Lonely (Hex/Mac Mix)
TTITLE12=Absolutely Not (Chanel Mix)
TTITLE13=Up and Down (Hex/Mac Mix)
TTITLE14=Mr Lonely (Junior Vasquez Mix)
EXTD=
EXTT0=
EXTT1=
EXTT2=
EXTT3=
EXTT4=
EXTT5=
EXTT6=
EXTT7=
EXTT8=
EXTT9=
EXTT10=
EXTT11=
EXTT12=
EXTT13=
EXTT14=
PLAYORDER=
